<svg width="40" height="40" viewBox="0 0 40 40" fill="none" xmlns="http://www.w3.org/2000/svg">
<g clip-path="url(#clip0_2700_2032)">
<path d="M35.4295 23.5425L38.1645 20.8075C38.6105 20.3615 38.6105 19.6375 38.1645 19.1915L35.4295 16.4565C35.1405 16.1675 35.0285 15.7475 35.1335 15.3525L36.1345 11.6165C36.2975 11.0065 35.9365 10.3805 35.3265 10.2165L31.5905 9.21552C31.1965 9.10952 30.8885 8.80152 30.7825 8.40752L29.7815 4.67152C29.6185 4.06152 28.9915 3.70052 28.3815 3.86352L24.6455 4.86452C24.2515 4.97052 23.8305 4.85752 23.5415 4.56852L20.8065 1.83352C20.3605 1.38752 19.6365 1.38752 19.1905 1.83352L16.4555 4.56852C16.1665 4.85752 15.7465 4.96952 15.3515 4.86452L11.6155 3.86352C11.0055 3.70052 10.3795 4.06152 10.2155 4.67152L9.21455 8.40752C9.10855 8.80152 8.80055 9.10952 8.40655 9.21552L4.67055 10.2165C4.06055 10.3795 3.69955 11.0065 3.86255 11.6165L4.86355 15.3525C4.96955 15.7465 4.85655 16.1675 4.56755 16.4565L1.83255 19.1915C1.38655 19.6375 1.38655 20.3615 1.83255 20.8075L4.56755 23.5425C4.85655 23.8315 4.96855 24.2515 4.86355 24.6465L3.86255 28.3825C3.69955 28.9925 4.06055 29.6185 4.67055 29.7825L8.40655 30.7835C8.80055 30.8895 9.10855 31.1975 9.21455 31.5915L10.2155 35.3275C10.3785 35.9375 11.0055 36.2985 11.6155 36.1355L15.3515 35.1345C15.7455 35.0285 16.1665 35.1415 16.4555 35.4305L19.1905 38.1655C19.6365 38.6115 20.3605 38.6115 20.8065 38.1655L23.5415 35.4305C23.8305 35.1415 24.2505 35.0295 24.6455 35.1345L28.3815 36.1355C28.9915 36.2985 29.6175 35.9375 29.7815 35.3275L30.7825 31.5915C30.8885 31.1975 31.1965 30.8895 31.5905 30.7835L35.3265 29.7825C35.9365 29.6195 36.2975 28.9925 36.1345 28.3825L35.1335 24.6465C35.0275 24.2525 35.1405 23.8315 35.4295 23.5425Z" fill="#FFCD00"/>
<path d="M20.001 32.333C26.8123 32.333 32.334 26.8113 32.334 20C32.334 13.1887 26.8123 7.66699 20.001 7.66699C13.1896 7.66699 7.66797 13.1887 7.66797 20C7.66797 26.8113 13.1896 32.333 20.001 32.333Z" fill="#FFAA00"/>
<path d="M16.5471 19.0093C17.4275 19.0093 18.1411 18.2956 18.1411 17.4153C18.1411 16.5349 17.4275 15.8213 16.5471 15.8213C15.6668 15.8213 14.9531 16.5349 14.9531 17.4153C14.9531 18.2956 15.6668 19.0093 16.5471 19.0093Z" fill="black"/>
<path d="M23.4534 19.0093C24.3337 19.0093 25.0474 18.2956 25.0474 17.4153C25.0474 16.5349 24.3337 15.8213 23.4534 15.8213C22.573 15.8213 21.8594 16.5349 21.8594 17.4153C21.8594 18.2956 22.573 19.0093 23.4534 19.0093Z" fill="black"/>
<path d="M20.0002 23.3567C17.7452 23.3567 16.0762 22.9517 15.0822 22.6167C14.6422 22.4687 14.2782 23.0137 14.6032 23.3467C15.5852 24.3527 17.6872 25.2237 20.0002 25.2237C22.3132 25.2237 24.4152 24.3527 25.3972 23.3467C25.7222 23.0137 25.3582 22.4687 24.9182 22.6167C23.9242 22.9517 22.2552 23.3567 20.0002 23.3567Z" fill="#EC6700"/>
</g>
<defs>
<clipPath id="clip0_2700_2032">
<rect width="40" height="40" fill="white"/>
</clipPath>
</defs>
</svg>
