<svg width="14" height="14" viewBox="0 0 14 14" fill="none" xmlns="http://www.w3.org/2000/svg">
<path d="M11.6859 5.27973L12.2635 4.70213C12.7229 4.24265 12.9811 3.61945 12.9811 2.96964C12.9811 2.31983 12.7229 1.69664 12.2635 1.23715C11.804 0.777667 11.1809 0.519531 10.5311 0.519531C9.8813 0.519531 9.25814 0.777667 8.79868 1.23715L8.22111 1.81475L2.91143 7.12344C2.55193 7.48359 2.37187 7.66366 2.21735 7.8618C2.03504 8.09575 1.87858 8.34874 1.75068 8.61636C1.6429 8.84316 1.56252 9.08492 1.40177 9.56719L0.720152 11.6115M11.6859 5.27973C11.6859 5.27973 10.4591 5.20745 9.37625 4.12453C8.29338 3.04223 8.22173 1.81475 8.22173 1.81475M11.6859 5.27973L6.37686 10.5884C6.01736 10.9479 5.8373 11.128 5.63917 11.2825C5.40523 11.4649 5.15225 11.6213 4.88465 11.7492C4.65786 11.857 4.41673 11.9374 3.93387 12.0982L1.88963 12.7798M1.88963 12.7798L1.38994 12.9468C1.27346 12.9859 1.1484 12.9917 1.02881 12.9635C0.909215 12.9354 0.799838 12.8745 0.712969 12.7876C0.6261 12.7007 0.565182 12.5914 0.537064 12.4718C0.508945 12.3522 0.514739 12.2271 0.553796 12.1106L0.720775 11.6109L1.88963 12.7798Z" stroke="#535353" stroke-width="1.03846"/>
</svg>
