<svg width="40" height="40" viewBox="0 0 40 40" fill="none" xmlns="http://www.w3.org/2000/svg">
<g clip-path="url(#clip0_2700_2049)">
<path d="M27.0531 20.5678L29.1131 18.5078C29.4491 18.1718 29.4491 17.6268 29.1131 17.2908L27.0531 15.2308C26.8361 15.0138 26.7511 14.6968 26.8301 14.3998L27.5841 11.5858C27.7071 11.1268 27.4351 10.6548 26.9751 10.5318L24.1611 9.77784C23.8641 9.69784 23.6321 9.46584 23.5521 9.16884L22.7981 6.35484C22.6751 5.89584 22.2031 5.62284 21.7441 5.74584L18.9301 6.49984C18.6331 6.57984 18.3161 6.49484 18.0991 6.27684L16.0391 4.21684C15.7031 3.88084 15.1581 3.88084 14.8221 4.21684L12.7621 6.27684C12.5451 6.49384 12.2281 6.57884 11.9311 6.49984L9.11709 5.74584C8.65809 5.62284 8.18609 5.89484 8.06309 6.35484L7.30909 9.16884C7.22909 9.46584 6.99709 9.69784 6.70009 9.77784L3.88609 10.5318C3.42709 10.6548 3.15409 11.1268 3.27709 11.5858L4.03109 14.3998C4.11109 14.6968 4.02609 15.0138 3.80809 15.2308L1.74809 17.2908C1.41209 17.6268 1.41209 18.1718 1.74809 18.5078L3.80809 20.5678C4.02509 20.7848 4.11009 21.1018 4.03109 21.3988L3.27709 24.2128C3.15409 24.6718 3.42609 25.1438 3.88609 25.2668L6.70009 26.0208C6.99709 26.1008 7.22909 26.3328 7.30909 26.6298L8.06309 29.4438C8.18609 29.9028 8.65809 30.1758 9.11709 30.0528L11.9311 29.2988C12.2281 29.2188 12.5451 29.3038 12.7621 29.5218L14.8221 31.5818C15.1581 31.9178 15.7031 31.9178 16.0391 31.5818L18.0991 29.5218C18.3161 29.3048 18.6331 29.2198 18.9301 29.2988L21.7441 30.0528C22.2031 30.1758 22.6751 29.9038 22.7981 29.4438L23.5521 26.6298C23.6321 26.3328 23.8641 26.1008 24.1611 26.0208L26.9751 25.2668C27.4341 25.1438 27.7071 24.6718 27.5841 24.2128L26.8301 21.3988C26.7501 21.1018 26.8351 20.7848 27.0531 20.5678Z" fill="#FFCD00"/>
<path d="M15.4335 26.0838C19.9186 26.0838 23.5545 22.4479 23.5545 17.9628C23.5545 13.4777 19.9186 9.8418 15.4335 9.8418C10.9484 9.8418 7.3125 13.4777 7.3125 17.9628C7.3125 22.4479 10.9484 26.0838 15.4335 26.0838Z" fill="#FFAA00"/>
<path d="M32.1259 36.0334H13.1289V26.1914L31.8729 27.4564L32.1259 36.0334Z" fill="#E5E8EB"/>
<path d="M25.1888 30.1101C29.5237 30.1101 33.0378 26.596 33.0378 22.2611C33.0378 17.9262 29.5237 14.4121 25.1888 14.4121C20.854 14.4121 17.3398 17.9262 17.3398 22.2611C17.3398 26.596 20.854 30.1101 25.1888 30.1101Z" fill="#E5E8EB"/>
<path d="M31.8435 36.0327C35.5195 36.0327 38.4995 33.0527 38.4995 29.3767C38.4995 25.7007 35.5195 22.7207 31.8435 22.7207C28.1675 22.7207 25.1875 25.7007 25.1875 29.3767C25.1875 33.0527 28.1675 36.0327 31.8435 36.0327Z" fill="#E5E8EB"/>
<path d="M13.1292 36.0329C16.5423 36.0329 19.3092 33.266 19.3092 29.8529C19.3092 26.4397 16.5423 23.6729 13.1292 23.6729C9.7161 23.6729 6.94922 26.4397 6.94922 29.8529C6.94922 33.266 9.7161 36.0329 13.1292 36.0329Z" fill="#E5E8EB"/>
<path d="M17.3393 28.4568C20.1327 28.4568 22.3973 26.1923 22.3973 23.3988C22.3973 20.6054 20.1327 18.3408 17.3393 18.3408C14.5458 18.3408 12.2812 20.6054 12.2812 23.3988C12.2812 26.1923 14.5458 28.4568 17.3393 28.4568Z" fill="#E5E8EB"/>
</g>
<defs>
<clipPath id="clip0_2700_2049">
<rect width="40" height="40" fill="white"/>
</clipPath>
</defs>
</svg>
