<svg width="40" height="40" viewBox="0 0 40 40" fill="none" xmlns="http://www.w3.org/2000/svg">
<g clip-path="url(#clip0_2700_2041)">
<path d="M31.0251 31.6787H8.74609V20.1367L30.7291 21.6197L31.0251 31.6787Z" fill="#E5E8EB"/>
<path d="M22.8886 24.7323C27.9724 24.7323 32.0936 20.611 32.0936 15.5273C32.0936 10.4435 27.9724 6.32227 22.8886 6.32227C17.8048 6.32227 13.6836 10.4435 13.6836 15.5273C13.6836 20.611 17.8048 24.7323 22.8886 24.7323Z" fill="#E5E8EB"/>
<path d="M30.6956 31.6774C35.0062 31.6774 38.5006 28.183 38.5006 23.8724C38.5006 19.5618 35.0062 16.0674 30.6956 16.0674C26.385 16.0674 22.8906 19.5618 22.8906 23.8724C22.8906 28.183 26.385 31.6774 30.6956 31.6774Z" fill="#E5E8EB"/>
<path d="M8.747 31.6776C12.7494 31.6776 15.994 28.433 15.994 24.4306C15.994 20.4282 12.7494 17.1836 8.747 17.1836C4.74459 17.1836 1.5 20.4282 1.5 24.4306C1.5 28.433 4.74459 31.6776 8.747 31.6776Z" fill="#E5E8EB"/>
<path d="M13.684 22.7937C16.9601 22.7937 19.616 20.1378 19.616 16.8617C19.616 13.5855 16.9601 10.9297 13.684 10.9297C10.4078 10.9297 7.75195 13.5855 7.75195 16.8617C7.75195 20.1378 10.4078 22.7937 13.684 22.7937Z" fill="#E5E8EB"/>
</g>
<defs>
<clipPath id="clip0_2700_2041">
<rect width="40" height="40" fill="white"/>
</clipPath>
</defs>
</svg>
