<svg width="40" height="40" viewBox="0 0 40 40" fill="none" xmlns="http://www.w3.org/2000/svg">
<g clip-path="url(#clip0_2700_2061)">
<path d="M16.6095 33.2896C16.7955 32.5786 18.2845 30.8046 19.0315 29.9466C19.2065 29.7446 19.5355 29.8306 19.5895 30.0926C19.8205 31.2056 20.2515 33.4816 20.0655 34.1936C19.8155 35.1476 18.8405 35.7196 17.8855 35.4696C16.9315 35.2196 16.3595 34.2446 16.6095 33.2896Z" fill="#88C5FF"/>
<path d="M24.6446 33.2896C24.8306 32.5786 26.3196 30.8046 27.0666 29.9466C27.2416 29.7446 27.5706 29.8306 27.6246 30.0926C27.8556 31.2056 28.2866 33.4816 28.1006 34.1936C27.8506 35.1476 26.8756 35.7196 25.9206 35.4696C24.9666 35.2196 24.3946 34.2446 24.6446 33.2896Z" fill="#88C5FF"/>
<path d="M8.5743 33.2896C8.7603 32.5786 10.2493 30.8046 10.9963 29.9466C11.1713 29.7446 11.5003 29.8306 11.5543 30.0926C11.7853 31.2056 12.2163 33.4816 12.0303 34.1936C11.7803 35.1476 10.8053 35.7196 9.8503 35.4696C8.8963 35.2196 8.3243 34.2446 8.5743 33.2896Z" fill="#88C5FF"/>
<path d="M30.4295 27.2823H9.35547V16.3643L30.1495 17.7673L30.4295 27.2823Z" fill="#E5E8EB"/>
<path d="M22.7324 20.7109C27.5411 20.7109 31.4394 16.8126 31.4394 12.0039C31.4394 7.19513 27.5411 3.29688 22.7324 3.29688C17.9236 3.29688 14.0254 7.19513 14.0254 12.0039C14.0254 16.8126 17.9236 20.7109 22.7324 20.7109Z" fill="#E5E8EB"/>
<path d="M30.1164 27.2817C34.1945 27.2817 37.5004 23.9757 37.5004 19.8977C37.5004 15.8196 34.1945 12.5137 30.1164 12.5137C26.0384 12.5137 22.7324 15.8196 22.7324 19.8977C22.7324 23.9757 26.0384 27.2817 30.1164 27.2817Z" fill="#E5E8EB"/>
<path d="M9.356 27.2823C13.1425 27.2823 16.212 24.2128 16.212 20.4263C16.212 16.6398 13.1425 13.5703 9.356 13.5703C5.56954 13.5703 2.5 16.6398 2.5 20.4263C2.5 24.2128 5.56954 27.2823 9.356 27.2823Z" fill="#E5E8EB"/>
<path d="M14.0261 18.8783C17.1255 18.8783 19.6381 16.3657 19.6381 13.2663C19.6381 10.1669 17.1255 7.6543 14.0261 7.6543C10.9266 7.6543 8.41406 10.1669 8.41406 13.2663C8.41406 16.3657 10.9266 18.8783 14.0261 18.8783Z" fill="#E5E8EB"/>
</g>
<defs>
<clipPath id="clip0_2700_2061">
<rect width="40" height="40" fill="white"/>
</clipPath>
</defs>
</svg>
