<svg width="40" height="40" viewBox="0 0 40 40" fill="none" xmlns="http://www.w3.org/2000/svg">
<g clip-path="url(#clip0_2700_2081)">
<path d="M20.438 12.7356L21.763 11.4106C21.979 11.1946 21.979 10.8436 21.763 10.6276L20.438 9.30262C20.298 9.16262 20.244 8.95862 20.295 8.76762L20.78 6.95762C20.859 6.66262 20.684 6.35862 20.389 6.27962L18.579 5.79462C18.388 5.74362 18.239 5.59462 18.188 5.40362L17.703 3.59362C17.624 3.29862 17.32 3.12262 17.025 3.20262L15.215 3.68762C15.024 3.73862 14.82 3.68462 14.68 3.54462L13.355 2.21962C13.139 2.00362 12.788 2.00362 12.572 2.21962L11.247 3.54462C11.107 3.68462 10.903 3.73862 10.712 3.68762L8.90195 3.20262C8.60695 3.12362 8.30295 3.29862 8.22395 3.59362L7.73895 5.40362C7.68795 5.59462 7.53895 5.74362 7.34795 5.79462L5.53795 6.27962C5.24295 6.35862 5.06695 6.66262 5.14695 6.95762L5.63195 8.76762C5.68295 8.95862 5.62895 9.16262 5.48895 9.30262L4.16395 10.6276C3.94795 10.8436 3.94795 11.1946 4.16395 11.4106L5.48895 12.7356C5.62895 12.8756 5.68295 13.0796 5.63195 13.2706L5.14695 15.0806C5.06795 15.3756 5.24295 15.6796 5.53795 15.7586L7.34795 16.2436C7.53895 16.2946 7.68795 16.4436 7.73895 16.6346L8.22395 18.4446C8.30295 18.7396 8.60695 18.9156 8.90195 18.8356L10.712 18.3506C10.903 18.2996 11.107 18.3536 11.247 18.4936L12.572 19.8186C12.788 20.0346 13.139 20.0346 13.355 19.8186L14.68 18.4936C14.82 18.3536 15.024 18.2996 15.215 18.3506L17.025 18.8356C17.32 18.9146 17.624 18.7396 17.703 18.4446L18.188 16.6346C18.239 16.4436 18.388 16.2946 18.579 16.2436L20.389 15.7586C20.684 15.6796 20.86 15.3756 20.78 15.0806L20.295 13.2706C20.244 13.0796 20.298 12.8756 20.438 12.7356Z" fill="#FFCD00"/>
<path d="M12.9623 16.2849C15.8474 16.2849 18.1863 13.946 18.1863 11.0609C18.1863 8.17578 15.8474 5.83691 12.9623 5.83691C10.0771 5.83691 7.73828 8.17578 7.73828 11.0609C7.73828 13.946 10.0771 16.2849 12.9623 16.2849Z" fill="#FFAA00"/>
<path d="M29.5987 28.2923H10.5117V18.4043L29.3447 19.6743L29.5987 28.2923Z" fill="#E5E8EB"/>
<path d="M22.6282 22.3413C26.9835 22.3413 30.5142 18.8107 30.5142 14.4553C30.5142 10.1 26.9835 6.56934 22.6282 6.56934C18.2729 6.56934 14.7422 10.1 14.7422 14.4553C14.7422 18.8107 18.2729 22.3413 22.6282 22.3413Z" fill="#E5E8EB"/>
<path d="M29.314 28.292C33.0071 28.292 36.001 25.2981 36.001 21.605C36.001 17.9118 33.0071 14.918 29.314 14.918C25.6208 14.918 22.627 17.9118 22.627 21.605C22.627 25.2981 25.6208 28.292 29.314 28.292Z" fill="#E5E8EB"/>
<path d="M10.5117 28.292C13.9409 28.292 16.7207 25.5122 16.7207 22.083C16.7207 18.6539 13.9409 15.874 10.5117 15.874C7.0826 15.874 4.30273 18.6539 4.30273 22.083C4.30273 25.5122 7.0826 28.292 10.5117 28.292Z" fill="#E5E8EB"/>
<path d="M14.7422 20.6806C17.5489 20.6806 19.8242 18.4053 19.8242 15.5986C19.8242 12.7919 17.5489 10.5166 14.7422 10.5166C11.9354 10.5166 9.66016 12.7919 9.66016 15.5986C9.66016 18.4053 11.9354 20.6806 14.7422 20.6806Z" fill="#E5E8EB"/>
<path d="M17.553 35.1188C17.764 34.3108 19.456 32.2948 20.305 31.3208C20.504 31.0918 20.878 31.1898 20.939 31.4868C21.202 32.7518 21.691 35.3378 21.48 36.1458C21.197 37.2298 20.088 37.8798 19.003 37.5958C17.919 37.3128 17.269 36.2038 17.553 35.1188Z" fill="#88C5FF"/>
<path d="M26.6819 35.1188C26.8929 34.3108 28.5849 32.2948 29.4339 31.3208C29.6329 31.0918 30.0069 31.1898 30.0679 31.4868C30.3309 32.7518 30.8199 35.3378 30.6089 36.1458C30.3259 37.2298 29.2169 37.8798 28.1319 37.5958C27.0479 37.3128 26.3979 36.2038 26.6819 35.1188Z" fill="#88C5FF"/>
<path d="M8.42211 35.1188C8.63311 34.3108 10.3251 32.2948 11.1741 31.3208C11.3731 31.0918 11.7471 31.1898 11.8081 31.4868C12.0711 32.7518 12.5601 35.3378 12.3491 36.1458C12.0661 37.2298 10.9571 37.8798 9.87211 37.5958C8.78811 37.3128 8.13811 36.2038 8.42211 35.1188Z" fill="#88C5FF"/>
</g>
<defs>
<clipPath id="clip0_2700_2081">
<rect width="40" height="40" fill="white"/>
</clipPath>
</defs>
</svg>
