<svg width="40" height="40" viewBox="0 0 40 40" fill="none" xmlns="http://www.w3.org/2000/svg">
<g clip-path="url(#clip0_2700_2072)">
<path d="M30.7397 27.2598V27.2798H30.4297C30.5297 27.2798 30.6397 27.2798 30.7397 27.2598Z" fill="#E5E8EB"/>
<path d="M37.8105 19.8998C37.8105 23.8798 34.6805 27.1098 30.7405 27.2598C30.6405 27.2798 30.5305 27.2798 30.4305 27.2798H9.67055C5.88055 27.2798 2.81055 24.2098 2.81055 20.4298C2.81055 16.9498 5.39055 14.0798 8.75055 13.6398C8.73055 13.5198 8.73055 13.3998 8.73055 13.2698C8.73055 10.1698 11.2405 7.64981 14.3405 7.64981C14.7205 7.64981 15.0905 7.6898 15.4405 7.7598C16.9305 5.0998 19.7805 3.2998 23.0405 3.2998C27.8505 3.2998 31.7505 7.1998 31.7505 11.9998C31.7505 12.2098 31.7405 12.4198 31.7305 12.6298C35.1905 13.2398 37.8105 16.2598 37.8105 19.8998Z" fill="#E5E8EB"/>
<path d="M13.8691 34.1395C13.7591 34.3295 13.5491 34.4395 13.3491 34.4395C13.2391 34.4395 13.1391 34.4095 13.0491 34.3595L11.9491 33.7195V34.9895C11.9491 35.3195 11.6791 35.5895 11.3491 35.5895C11.0191 35.5895 10.7491 35.3195 10.7491 34.9895V33.7195L9.64906 34.3595C9.54906 34.4095 9.44906 34.4395 9.34906 34.4395C9.13906 34.4395 8.93906 34.3295 8.82906 34.1395C8.65906 33.8495 8.75906 33.4795 9.04906 33.3195L10.1491 32.6895L9.04906 32.0495C8.75906 31.8795 8.65906 31.5095 8.82906 31.2295C8.98906 30.9395 9.35906 30.8395 9.64906 31.0095L10.7491 31.6495V30.3695C10.7491 30.0395 11.0191 29.7695 11.3491 29.7695C11.6791 29.7695 11.9491 30.0395 11.9491 30.3695V31.6495L13.0491 31.0095C13.3291 30.8395 13.6991 30.9395 13.8691 31.2295C14.0291 31.5095 13.9291 31.8795 13.6491 32.0495L12.5491 32.6895L13.6491 33.3195C13.9291 33.4795 14.0291 33.8495 13.8691 34.1395Z" fill="#A8BFFF"/>
<path d="M21.8691 34.1395C21.7591 34.3295 21.5491 34.4395 21.3491 34.4395C21.2391 34.4395 21.1391 34.4095 21.0491 34.3595L19.9491 33.7195V34.9895C19.9491 35.3195 19.6791 35.5895 19.3491 35.5895C19.0191 35.5895 18.7491 35.3195 18.7491 34.9895V33.7195L17.6491 34.3595C17.5491 34.4095 17.4491 34.4395 17.3491 34.4395C17.1391 34.4395 16.9391 34.3295 16.8291 34.1395C16.6591 33.8495 16.7591 33.4795 17.0491 33.3195L18.1491 32.6895L17.0491 32.0495C16.7591 31.8795 16.6591 31.5095 16.8291 31.2295C16.9891 30.9395 17.3591 30.8395 17.6491 31.0095L18.7491 31.6495V30.3695C18.7491 30.0395 19.0191 29.7695 19.3491 29.7695C19.6791 29.7695 19.9491 30.0395 19.9491 30.3695V31.6495L21.0491 31.0095C21.3291 30.8395 21.6991 30.9395 21.8691 31.2295C22.0291 31.5095 21.9291 31.8795 21.6491 32.0495L20.5491 32.6895L21.6491 33.3195C21.9291 33.4795 22.0291 33.8495 21.8691 34.1395Z" fill="#A8BFFF"/>
<path d="M29.8691 34.1395C29.7591 34.3295 29.5491 34.4395 29.3491 34.4395C29.2391 34.4395 29.1391 34.4095 29.0491 34.3595L27.9491 33.7195V34.9895C27.9491 35.3195 27.6791 35.5895 27.3491 35.5895C27.0191 35.5895 26.7491 35.3195 26.7491 34.9895V33.7195L25.6491 34.3595C25.5491 34.4095 25.4491 34.4395 25.3491 34.4395C25.1391 34.4395 24.9391 34.3295 24.8291 34.1395C24.6591 33.8495 24.7591 33.4795 25.0491 33.3195L26.1491 32.6895L25.0491 32.0495C24.7591 31.8795 24.6591 31.5095 24.8291 31.2295C24.9891 30.9395 25.3591 30.8395 25.6491 31.0095L26.7491 31.6495V30.3695C26.7491 30.0395 27.0191 29.7695 27.3491 29.7695C27.6791 29.7695 27.9491 30.0395 27.9491 30.3695V31.6495L29.0491 31.0095C29.3291 30.8395 29.6991 30.9395 29.8691 31.2295C30.0291 31.5095 29.9291 31.8795 29.6491 32.0495L28.5491 32.6895L29.6491 33.3195C29.9291 33.4795 30.0291 33.8495 29.8691 34.1395Z" fill="#A8BFFF"/>
</g>
<defs>
<clipPath id="clip0_2700_2072">
<rect width="40" height="40" fill="white"/>
</clipPath>
</defs>
</svg>
