<svg width="12" height="14" viewBox="0 0 12 14" fill="none" xmlns="http://www.w3.org/2000/svg">
<path d="M9.86568 4.67338L9.28415 10.4874C9.19622 11.3687 9.15261 11.809 8.95184 12.142C8.77575 12.4351 8.51678 12.6695 8.20761 12.8156C7.85661 12.9811 7.41492 12.9811 6.52876 12.9811H4.89492C4.00945 12.9811 3.56707 12.9811 3.21607 12.8149C2.90664 12.6689 2.64742 12.4345 2.47115 12.1413C2.27176 11.809 2.22745 11.3687 2.13884 10.4874L1.55799 4.67338M6.7503 9.17338V5.71184M4.67338 9.17338V5.71184M0.519531 2.94261H3.71453M3.71453 2.94261L3.98176 1.09276C4.0593 0.756301 4.33899 0.519531 4.66022 0.519531H6.76345C7.08468 0.519531 7.36368 0.756301 7.44192 1.09276L7.70915 2.94261M3.71453 2.94261H7.70915M7.70915 2.94261H10.9041" stroke="#535353" stroke-width="1.03846" stroke-linecap="round" stroke-linejoin="round"/>
</svg>
