<svg width="40" height="40" viewBox="0 0 40 40" fill="none" xmlns="http://www.w3.org/2000/svg">
<g clip-path="url(#clip0_2721_1589)">
<path d="M21.25 4.11712V3.87012C21.25 3.18012 20.69 2.62012 20 2.62012C19.31 2.62012 18.75 3.18012 18.75 3.87012V4.11712C19.165 4.08912 19.578 4.05812 20 4.05812C20.422 4.05812 20.835 4.09012 21.25 4.11712Z" fill="#4B596A"/>
<path d="M21.2507 32.4996C21.2507 32.5296 21.2307 32.5596 21.2307 32.5896C21.2307 32.6296 21.2507 32.6496 21.2507 32.6896C21.2507 35.1796 19.2207 37.1996 16.7407 37.1996C14.2607 37.1996 12.2207 35.1796 12.2207 32.6896C12.2207 31.9996 12.7807 31.4396 13.4707 31.4396C14.1607 31.4396 14.7207 31.9996 14.7207 32.6896C14.7207 33.7996 15.6207 34.6996 16.7407 34.6996C17.8507 34.6996 18.7507 33.7996 18.7507 32.6896C18.7507 32.6496 18.7707 32.6296 18.7707 32.5896C18.7707 32.5596 18.7507 32.5296 18.7507 32.4996V22.6396H21.2507V32.4996Z" fill="#4B596A"/>
<path d="M20.0004 4.05664C19.5784 4.05664 19.1654 4.08864 18.7504 4.11564C9.69039 4.72064 2.40239 11.7996 1.50839 20.7776C1.40939 21.7736 2.19939 22.6406 3.19939 22.6406H7.49939C7.49939 12.3766 13.0964 4.05664 20.0004 4.05664Z" fill="#2F81F9"/>
<path d="M21.25 4.11662C20.835 4.08862 20.422 4.05762 20 4.05762C26.904 4.05762 32.5 12.3776 32.5 22.6416H36.8C37.8 22.6416 38.59 21.7746 38.491 20.7786C37.597 11.8006 30.309 4.72162 21.249 4.11762L21.25 4.11662Z" fill="#2F81F9"/>
<path d="M20 4.05664C13.096 4.05664 7.5 12.3766 7.5 22.6406H14.5C14.5 12.3766 16.962 4.05664 20 4.05664Z" fill="#64A7FF"/>
<path d="M20 4.05664C23.038 4.05664 25.5 12.3766 25.5 22.6406H32.5C32.5 12.3766 26.904 4.05664 20 4.05664Z" fill="#64A7FF"/>
<path d="M20 4.05664C16.962 4.05664 14.5 12.3766 14.5 22.6406H25.5C25.5 12.3766 23.038 4.05664 20 4.05664Z" fill="#2F81F9"/>
</g>
<defs>
<clipPath id="clip0_2721_1589">
<rect width="40" height="40" fill="white"/>
</clipPath>
</defs>
</svg>
